<mxfile host="app.diagrams.net" modified="2021-11-18T09:18:41.619Z" agent="5.0 (Windows)" etag="UBJbIS8q8s6m6TkUhiAA" version="15.8.2" type="github">
  <diagram id="KSWh3MK-YOAXzn_U_65l" name="Page-1">
    <mxGraphModel dx="2516" dy="817" grid="1" gridSize="10" guides="1" tooltips="1" connect="1" arrows="1" fold="1" page="1" pageScale="1" pageWidth="827" pageHeight="1169" math="0" shadow="0">
      <root>
        <mxCell id="0" />
        <mxCell id="1" parent="0" />
        <mxCell id="kw3GEGED28d21vlwPzuF-1" value="" style="ellipse;whiteSpace=wrap;html=1;" vertex="1" parent="1">
          <mxGeometry x="-374" y="20" width="120" height="80" as="geometry" />
        </mxCell>
        <mxCell id="kw3GEGED28d21vlwPzuF-2" value="登陆系统" style="text;html=1;align=center;verticalAlign=middle;resizable=0;points=[];autosize=1;strokeColor=none;fillColor=none;" vertex="1" parent="1">
          <mxGeometry x="-354" y="110" width="60" height="20" as="geometry" />
        </mxCell>
        <mxCell id="kw3GEGED28d21vlwPzuF-3" value="" style="ellipse;whiteSpace=wrap;html=1;" vertex="1" parent="1">
          <mxGeometry x="-374" y="150" width="120" height="80" as="geometry" />
        </mxCell>
        <mxCell id="kw3GEGED28d21vlwPzuF-4" value="用户信息增删查改" style="text;html=1;align=center;verticalAlign=middle;resizable=0;points=[];autosize=1;strokeColor=none;fillColor=none;" vertex="1" parent="1">
          <mxGeometry x="-364" y="240" width="110" height="20" as="geometry" />
        </mxCell>
        <mxCell id="kw3GEGED28d21vlwPzuF-5" value="" style="ellipse;whiteSpace=wrap;html=1;" vertex="1" parent="1">
          <mxGeometry x="-374" y="270" width="120" height="80" as="geometry" />
        </mxCell>
        <mxCell id="kw3GEGED28d21vlwPzuF-6" value="更新订单信息" style="text;html=1;align=center;verticalAlign=middle;resizable=0;points=[];autosize=1;strokeColor=none;fillColor=none;" vertex="1" parent="1">
          <mxGeometry x="-354" y="360" width="90" height="20" as="geometry" />
        </mxCell>
        <mxCell id="kw3GEGED28d21vlwPzuF-7" value="" style="ellipse;whiteSpace=wrap;html=1;" vertex="1" parent="1">
          <mxGeometry x="-374" y="400" width="120" height="80" as="geometry" />
        </mxCell>
        <mxCell id="kw3GEGED28d21vlwPzuF-8" value="查询客户信息" style="text;html=1;align=center;verticalAlign=middle;resizable=0;points=[];autosize=1;strokeColor=none;fillColor=none;" vertex="1" parent="1">
          <mxGeometry x="-359" y="490" width="90" height="20" as="geometry" />
        </mxCell>
        <mxCell id="kw3GEGED28d21vlwPzuF-9" value="" style="ellipse;whiteSpace=wrap;html=1;" vertex="1" parent="1">
          <mxGeometry x="-374" y="510" width="120" height="80" as="geometry" />
        </mxCell>
        <mxCell id="kw3GEGED28d21vlwPzuF-10" value="更新客户信息" style="text;html=1;align=center;verticalAlign=middle;resizable=0;points=[];autosize=1;strokeColor=none;fillColor=none;" vertex="1" parent="1">
          <mxGeometry x="-369" y="600" width="90" height="20" as="geometry" />
        </mxCell>
        <mxCell id="kw3GEGED28d21vlwPzuF-11" value="" style="endArrow=block;dashed=1;endFill=0;endSize=12;html=1;rounded=0;" edge="1" parent="1">
          <mxGeometry width="160" relative="1" as="geometry">
            <mxPoint x="-104" y="59.5" as="sourcePoint" />
            <mxPoint x="-254" y="59.5" as="targetPoint" />
          </mxGeometry>
        </mxCell>
        <mxCell id="kw3GEGED28d21vlwPzuF-12" value="《include》" style="text;html=1;align=center;verticalAlign=middle;resizable=0;points=[];autosize=1;strokeColor=none;fillColor=none;" vertex="1" parent="1">
          <mxGeometry x="-224" y="30" width="80" height="20" as="geometry" />
        </mxCell>
        <mxCell id="kw3GEGED28d21vlwPzuF-13" value="" style="ellipse;whiteSpace=wrap;html=1;" vertex="1" parent="1">
          <mxGeometry x="-104" y="20" width="120" height="80" as="geometry" />
        </mxCell>
        <mxCell id="kw3GEGED28d21vlwPzuF-14" value="查询图书信息" style="text;html=1;align=center;verticalAlign=middle;resizable=0;points=[];autosize=1;strokeColor=none;fillColor=none;" vertex="1" parent="1">
          <mxGeometry x="-89" y="110" width="90" height="20" as="geometry" />
        </mxCell>
        <mxCell id="kw3GEGED28d21vlwPzuF-15" value="" style="ellipse;whiteSpace=wrap;html=1;" vertex="1" parent="1">
          <mxGeometry x="-104" y="160" width="120" height="80" as="geometry" />
        </mxCell>
        <mxCell id="kw3GEGED28d21vlwPzuF-16" value="订购图书" style="text;html=1;align=center;verticalAlign=middle;resizable=0;points=[];autosize=1;strokeColor=none;fillColor=none;" vertex="1" parent="1">
          <mxGeometry x="-84" y="250" width="60" height="20" as="geometry" />
        </mxCell>
        <mxCell id="kw3GEGED28d21vlwPzuF-17" value="" style="ellipse;whiteSpace=wrap;html=1;" vertex="1" parent="1">
          <mxGeometry x="-104" y="290" width="120" height="80" as="geometry" />
        </mxCell>
        <mxCell id="kw3GEGED28d21vlwPzuF-18" value="维护订单信息" style="text;html=1;align=center;verticalAlign=middle;resizable=0;points=[];autosize=1;strokeColor=none;fillColor=none;" vertex="1" parent="1">
          <mxGeometry x="-99" y="380" width="90" height="20" as="geometry" />
        </mxCell>
        <mxCell id="kw3GEGED28d21vlwPzuF-19" value="" style="endArrow=block;dashed=1;endFill=0;endSize=12;html=1;rounded=0;exitX=0.083;exitY=0.238;exitDx=0;exitDy=0;exitPerimeter=0;" edge="1" parent="1">
          <mxGeometry width="160" relative="1" as="geometry">
            <mxPoint x="-99.00000000000041" y="299.03999999999996" as="sourcePoint" />
            <mxPoint x="-248.96" y="210" as="targetPoint" />
          </mxGeometry>
        </mxCell>
        <mxCell id="kw3GEGED28d21vlwPzuF-20" value="《include》" style="text;html=1;align=center;verticalAlign=middle;resizable=0;points=[];autosize=1;strokeColor=none;fillColor=none;" vertex="1" parent="1">
          <mxGeometry x="-228.96" y="220" width="80" height="20" as="geometry" />
        </mxCell>
        <mxCell id="kw3GEGED28d21vlwPzuF-21" value="" style="endArrow=block;dashed=1;endFill=0;endSize=12;html=1;rounded=0;" edge="1" parent="1" source="kw3GEGED28d21vlwPzuF-17" target="kw3GEGED28d21vlwPzuF-5">
          <mxGeometry width="160" relative="1" as="geometry">
            <mxPoint x="-234" y="210" as="sourcePoint" />
            <mxPoint x="-364" y="140" as="targetPoint" />
          </mxGeometry>
        </mxCell>
        <mxCell id="kw3GEGED28d21vlwPzuF-22" value="《include》" style="text;html=1;align=center;verticalAlign=middle;resizable=0;points=[];autosize=1;strokeColor=none;fillColor=none;" vertex="1" parent="1">
          <mxGeometry x="-224" y="290" width="80" height="20" as="geometry" />
        </mxCell>
        <mxCell id="kw3GEGED28d21vlwPzuF-23" value="" style="ellipse;whiteSpace=wrap;html=1;" vertex="1" parent="1">
          <mxGeometry x="-114" y="420" width="120" height="80" as="geometry" />
        </mxCell>
        <mxCell id="kw3GEGED28d21vlwPzuF-24" value="维护个人信息" style="text;html=1;align=center;verticalAlign=middle;resizable=0;points=[];autosize=1;strokeColor=none;fillColor=none;" vertex="1" parent="1">
          <mxGeometry x="-99" y="500" width="90" height="20" as="geometry" />
        </mxCell>
        <mxCell id="kw3GEGED28d21vlwPzuF-25" value="" style="endArrow=block;dashed=1;endFill=0;endSize=12;html=1;rounded=0;exitX=0;exitY=0.5;exitDx=0;exitDy=0;entryX=1.017;entryY=0.588;entryDx=0;entryDy=0;entryPerimeter=0;" edge="1" parent="1" source="kw3GEGED28d21vlwPzuF-23" target="kw3GEGED28d21vlwPzuF-7">
          <mxGeometry width="160" relative="1" as="geometry">
            <mxPoint x="-234" y="390" as="sourcePoint" />
            <mxPoint x="-364" y="370" as="targetPoint" />
          </mxGeometry>
        </mxCell>
        <mxCell id="kw3GEGED28d21vlwPzuF-26" value="《include》" style="text;html=1;align=center;verticalAlign=middle;resizable=0;points=[];autosize=1;strokeColor=none;fillColor=none;" vertex="1" parent="1">
          <mxGeometry x="-244" y="430" width="80" height="20" as="geometry" />
        </mxCell>
        <mxCell id="kw3GEGED28d21vlwPzuF-27" value="" style="endArrow=block;dashed=1;endFill=0;endSize=12;html=1;rounded=0;exitX=0.042;exitY=0.763;exitDx=0;exitDy=0;exitPerimeter=0;" edge="1" parent="1" source="kw3GEGED28d21vlwPzuF-23" target="kw3GEGED28d21vlwPzuF-9">
          <mxGeometry width="160" relative="1" as="geometry">
            <mxPoint x="-234" y="390" as="sourcePoint" />
            <mxPoint x="-74" y="390" as="targetPoint" />
          </mxGeometry>
        </mxCell>
        <mxCell id="kw3GEGED28d21vlwPzuF-28" value="《include》" style="text;html=1;align=center;verticalAlign=middle;resizable=0;points=[];autosize=1;strokeColor=none;fillColor=none;" vertex="1" parent="1">
          <mxGeometry x="-244" y="490" width="80" height="20" as="geometry" />
        </mxCell>
        <mxCell id="kw3GEGED28d21vlwPzuF-30" value="" style="endArrow=classic;html=1;rounded=0;entryX=0.967;entryY=0.725;entryDx=0;entryDy=0;entryPerimeter=0;" edge="1" parent="1" target="kw3GEGED28d21vlwPzuF-13">
          <mxGeometry width="50" height="50" relative="1" as="geometry">
            <mxPoint x="116" y="210" as="sourcePoint" />
            <mxPoint x="106" y="180" as="targetPoint" />
          </mxGeometry>
        </mxCell>
        <mxCell id="kw3GEGED28d21vlwPzuF-31" value="" style="endArrow=classic;html=1;rounded=0;entryX=0.992;entryY=0.638;entryDx=0;entryDy=0;entryPerimeter=0;" edge="1" parent="1" target="kw3GEGED28d21vlwPzuF-15">
          <mxGeometry width="50" height="50" relative="1" as="geometry">
            <mxPoint x="106" y="240" as="sourcePoint" />
            <mxPoint x="106" y="180" as="targetPoint" />
          </mxGeometry>
        </mxCell>
        <mxCell id="kw3GEGED28d21vlwPzuF-32" value="" style="endArrow=classic;html=1;rounded=0;entryX=1;entryY=0.5;entryDx=0;entryDy=0;" edge="1" parent="1" target="kw3GEGED28d21vlwPzuF-17">
          <mxGeometry width="50" height="50" relative="1" as="geometry">
            <mxPoint x="96" y="270" as="sourcePoint" />
            <mxPoint x="106" y="180" as="targetPoint" />
          </mxGeometry>
        </mxCell>
        <mxCell id="kw3GEGED28d21vlwPzuF-33" value="" style="endArrow=classic;html=1;rounded=0;" edge="1" parent="1">
          <mxGeometry width="50" height="50" relative="1" as="geometry">
            <mxPoint x="106" y="290" as="sourcePoint" />
            <mxPoint x="16" y="450" as="targetPoint" />
          </mxGeometry>
        </mxCell>
        <mxCell id="kw3GEGED28d21vlwPzuF-35" value="Actor" style="shape=umlActor;verticalLabelPosition=bottom;verticalAlign=top;html=1;outlineConnect=0;" vertex="1" parent="1">
          <mxGeometry x="126" y="210" width="30" height="60" as="geometry" />
        </mxCell>
        <mxCell id="kw3GEGED28d21vlwPzuF-38" value="顾客" style="text;html=1;align=center;verticalAlign=middle;resizable=0;points=[];autosize=1;strokeColor=none;fillColor=none;" vertex="1" parent="1">
          <mxGeometry x="116" y="290" width="40" height="20" as="geometry" />
        </mxCell>
        <mxCell id="-2BwqX0TpwO1NMJ9FKD0-1" value="Actor" style="shape=umlActor;verticalLabelPosition=bottom;verticalAlign=top;html=1;outlineConnect=0;" vertex="1" parent="1">
          <mxGeometry x="270" y="200" width="30" height="60" as="geometry" />
        </mxCell>
        <mxCell id="-2BwqX0TpwO1NMJ9FKD0-3" value="管理员" style="text;html=1;align=center;verticalAlign=middle;resizable=0;points=[];autosize=1;strokeColor=none;fillColor=none;" vertex="1" parent="1">
          <mxGeometry x="255" y="290" width="50" height="20" as="geometry" />
        </mxCell>
        <mxCell id="-2BwqX0TpwO1NMJ9FKD0-4" value="" style="endArrow=classic;html=1;rounded=0;exitX=0.75;exitY=0.1;exitDx=0;exitDy=0;exitPerimeter=0;" edge="1" parent="1" source="-2BwqX0TpwO1NMJ9FKD0-1">
          <mxGeometry width="50" height="50" relative="1" as="geometry">
            <mxPoint x="390" y="330" as="sourcePoint" />
            <mxPoint x="370" y="150" as="targetPoint" />
          </mxGeometry>
        </mxCell>
        <mxCell id="-2BwqX0TpwO1NMJ9FKD0-5" value="" style="ellipse;whiteSpace=wrap;html=1;" vertex="1" parent="1">
          <mxGeometry x="370" y="70" width="120" height="80" as="geometry" />
        </mxCell>
        <mxCell id="-2BwqX0TpwO1NMJ9FKD0-6" value="查看图书的销售记录" style="text;html=1;align=center;verticalAlign=middle;resizable=0;points=[];autosize=1;strokeColor=none;fillColor=none;" vertex="1" parent="1">
          <mxGeometry x="370" y="160" width="120" height="20" as="geometry" />
        </mxCell>
        <mxCell id="-2BwqX0TpwO1NMJ9FKD0-7" value="" style="ellipse;whiteSpace=wrap;html=1;" vertex="1" parent="1">
          <mxGeometry x="380" y="200" width="120" height="80" as="geometry" />
        </mxCell>
        <mxCell id="-2BwqX0TpwO1NMJ9FKD0-8" value="" style="endArrow=classic;html=1;rounded=0;entryX=0;entryY=0.5;entryDx=0;entryDy=0;" edge="1" parent="1" source="-2BwqX0TpwO1NMJ9FKD0-1" target="-2BwqX0TpwO1NMJ9FKD0-7">
          <mxGeometry width="50" height="50" relative="1" as="geometry">
            <mxPoint x="390" y="330" as="sourcePoint" />
            <mxPoint x="440" y="280" as="targetPoint" />
          </mxGeometry>
        </mxCell>
        <mxCell id="-2BwqX0TpwO1NMJ9FKD0-9" value="维护员工信息" style="text;html=1;align=center;verticalAlign=middle;resizable=0;points=[];autosize=1;strokeColor=none;fillColor=none;" vertex="1" parent="1">
          <mxGeometry x="395" y="280" width="90" height="20" as="geometry" />
        </mxCell>
        <mxCell id="-2BwqX0TpwO1NMJ9FKD0-10" value="" style="ellipse;whiteSpace=wrap;html=1;" vertex="1" parent="1">
          <mxGeometry x="380" y="310" width="120" height="80" as="geometry" />
        </mxCell>
        <mxCell id="-2BwqX0TpwO1NMJ9FKD0-11" value="采购新书" style="text;html=1;align=center;verticalAlign=middle;resizable=0;points=[];autosize=1;strokeColor=none;fillColor=none;" vertex="1" parent="1">
          <mxGeometry x="400" y="390" width="60" height="20" as="geometry" />
        </mxCell>
        <mxCell id="-2BwqX0TpwO1NMJ9FKD0-12" value="" style="endArrow=classic;html=1;rounded=0;entryX=0;entryY=0.5;entryDx=0;entryDy=0;" edge="1" parent="1" target="-2BwqX0TpwO1NMJ9FKD0-10">
          <mxGeometry width="50" height="50" relative="1" as="geometry">
            <mxPoint x="310" y="270" as="sourcePoint" />
            <mxPoint x="440" y="280" as="targetPoint" />
          </mxGeometry>
        </mxCell>
        <mxCell id="-2BwqX0TpwO1NMJ9FKD0-13" value="" style="ellipse;whiteSpace=wrap;html=1;" vertex="1" parent="1">
          <mxGeometry x="380" y="420" width="120" height="80" as="geometry" />
        </mxCell>
        <mxCell id="-2BwqX0TpwO1NMJ9FKD0-14" value="更新图书信息" style="text;html=1;align=center;verticalAlign=middle;resizable=0;points=[];autosize=1;strokeColor=none;fillColor=none;" vertex="1" parent="1">
          <mxGeometry x="385" y="500" width="90" height="20" as="geometry" />
        </mxCell>
        <mxCell id="-2BwqX0TpwO1NMJ9FKD0-15" value="" style="endArrow=block;dashed=1;endFill=0;endSize=12;html=1;rounded=0;startArrow=none;" edge="1" parent="1" source="-2BwqX0TpwO1NMJ9FKD0-16">
          <mxGeometry width="160" relative="1" as="geometry">
            <mxPoint x="500" y="225.64" as="sourcePoint" />
            <mxPoint x="640" y="175.64" as="targetPoint" />
          </mxGeometry>
        </mxCell>
        <mxCell id="-2BwqX0TpwO1NMJ9FKD0-16" value="《include》" style="text;html=1;align=center;verticalAlign=middle;resizable=0;points=[];autosize=1;strokeColor=none;fillColor=none;" vertex="1" parent="1">
          <mxGeometry x="510" y="190" width="80" height="20" as="geometry" />
        </mxCell>
        <mxCell id="-2BwqX0TpwO1NMJ9FKD0-17" value="" style="endArrow=none;dashed=1;endFill=0;endSize=12;html=1;rounded=0;" edge="1" parent="1" target="-2BwqX0TpwO1NMJ9FKD0-16">
          <mxGeometry width="160" relative="1" as="geometry">
            <mxPoint x="500" y="225.63999999999987" as="sourcePoint" />
            <mxPoint x="640" y="175.63999999999987" as="targetPoint" />
          </mxGeometry>
        </mxCell>
        <mxCell id="-2BwqX0TpwO1NMJ9FKD0-18" value="" style="strokeWidth=2;html=1;shape=mxgraph.flowchart.start_1;whiteSpace=wrap;" vertex="1" parent="1">
          <mxGeometry x="640" y="140" width="100" height="60" as="geometry" />
        </mxCell>
        <mxCell id="-2BwqX0TpwO1NMJ9FKD0-19" value="修改维护员工信息" style="text;html=1;align=center;verticalAlign=middle;resizable=0;points=[];autosize=1;strokeColor=none;fillColor=none;" vertex="1" parent="1">
          <mxGeometry x="625" y="210" width="110" height="20" as="geometry" />
        </mxCell>
        <mxCell id="-2BwqX0TpwO1NMJ9FKD0-20" value="" style="endArrow=block;dashed=1;endFill=0;endSize=12;html=1;rounded=0;exitX=1.002;exitY=0.703;exitDx=0;exitDy=0;exitPerimeter=0;entryX=1.057;entryY=0.988;entryDx=0;entryDy=0;entryPerimeter=0;" edge="1" parent="1" source="-2BwqX0TpwO1NMJ9FKD0-7" target="-2BwqX0TpwO1NMJ9FKD0-21">
          <mxGeometry width="160" relative="1" as="geometry">
            <mxPoint x="660.726831125865" y="295.6440382282934" as="sourcePoint" />
            <mxPoint x="770" y="310" as="targetPoint" />
          </mxGeometry>
        </mxCell>
        <mxCell id="-2BwqX0TpwO1NMJ9FKD0-21" value="《include》" style="text;html=1;align=center;verticalAlign=middle;resizable=0;points=[];autosize=1;strokeColor=none;fillColor=none;" vertex="1" parent="1">
          <mxGeometry x="540.37" y="260" width="80" height="20" as="geometry" />
        </mxCell>
        <mxCell id="-2BwqX0TpwO1NMJ9FKD0-22" value="" style="strokeWidth=2;html=1;shape=mxgraph.flowchart.start_1;whiteSpace=wrap;" vertex="1" parent="1">
          <mxGeometry x="630" y="250" width="100" height="60" as="geometry" />
        </mxCell>
        <mxCell id="-2BwqX0TpwO1NMJ9FKD0-23" value="更新员工信息" style="text;html=1;align=center;verticalAlign=middle;resizable=0;points=[];autosize=1;strokeColor=none;fillColor=none;" vertex="1" parent="1">
          <mxGeometry x="635" y="320" width="90" height="20" as="geometry" />
        </mxCell>
        <mxCell id="-2BwqX0TpwO1NMJ9FKD0-24" value="" style="endArrow=block;dashed=1;endFill=0;endSize=12;html=1;rounded=0;" edge="1" parent="1">
          <mxGeometry width="160" relative="1" as="geometry">
            <mxPoint x="500" y="460" as="sourcePoint" />
            <mxPoint x="630" y="460" as="targetPoint" />
          </mxGeometry>
        </mxCell>
        <mxCell id="-2BwqX0TpwO1NMJ9FKD0-25" value="《include》" style="text;html=1;align=center;verticalAlign=middle;resizable=0;points=[];autosize=1;strokeColor=none;fillColor=none;" vertex="1" parent="1">
          <mxGeometry x="510" y="430" width="80" height="20" as="geometry" />
        </mxCell>
        <mxCell id="-2BwqX0TpwO1NMJ9FKD0-26" value="" style="strokeWidth=2;html=1;shape=mxgraph.flowchart.start_1;whiteSpace=wrap;" vertex="1" parent="1">
          <mxGeometry x="630" y="430" width="100" height="60" as="geometry" />
        </mxCell>
        <mxCell id="-2BwqX0TpwO1NMJ9FKD0-27" value="删除无需信息" style="text;html=1;align=center;verticalAlign=middle;resizable=0;points=[];autosize=1;strokeColor=none;fillColor=none;" vertex="1" parent="1">
          <mxGeometry x="640" y="490" width="90" height="20" as="geometry" />
        </mxCell>
        <mxCell id="-2BwqX0TpwO1NMJ9FKD0-28" value="" style="endArrow=block;dashed=1;endFill=0;endSize=12;html=1;rounded=0;" edge="1" parent="1">
          <mxGeometry width="160" relative="1" as="geometry">
            <mxPoint x="485.00201820268273" y="489.99840703031094" as="sourcePoint" />
            <mxPoint x="594.61" y="570.42" as="targetPoint" />
          </mxGeometry>
        </mxCell>
        <mxCell id="-2BwqX0TpwO1NMJ9FKD0-29" value="《include》" style="text;html=1;align=center;verticalAlign=middle;resizable=0;points=[];autosize=1;strokeColor=none;fillColor=none;" vertex="1" parent="1">
          <mxGeometry x="519.25" y="520.42" width="80" height="20" as="geometry" />
        </mxCell>
        <mxCell id="-2BwqX0TpwO1NMJ9FKD0-30" value="" style="strokeWidth=2;html=1;shape=mxgraph.flowchart.start_1;whiteSpace=wrap;" vertex="1" parent="1">
          <mxGeometry x="610" y="550" width="100" height="60" as="geometry" />
        </mxCell>
        <mxCell id="-2BwqX0TpwO1NMJ9FKD0-31" value="更新新信息" style="text;html=1;align=center;verticalAlign=middle;resizable=0;points=[];autosize=1;strokeColor=none;fillColor=none;" vertex="1" parent="1">
          <mxGeometry x="600" y="610" width="80" height="20" as="geometry" />
        </mxCell>
        <mxCell id="-2BwqX0TpwO1NMJ9FKD0-32" value="Actor" style="shape=umlActor;verticalLabelPosition=bottom;verticalAlign=top;html=1;outlineConnect=0;" vertex="1" parent="1">
          <mxGeometry x="200" y="370" width="30" height="60" as="geometry" />
        </mxCell>
        <mxCell id="-2BwqX0TpwO1NMJ9FKD0-36" value="工作人员" style="text;html=1;align=center;verticalAlign=middle;resizable=0;points=[];autosize=1;strokeColor=none;fillColor=none;" vertex="1" parent="1">
          <mxGeometry x="180" y="460" width="60" height="20" as="geometry" />
        </mxCell>
        <mxCell id="-2BwqX0TpwO1NMJ9FKD0-37" value="" style="endArrow=classic;html=1;rounded=0;exitX=0.533;exitY=1.106;exitDx=0;exitDy=0;exitPerimeter=0;" edge="1" parent="1" source="-2BwqX0TpwO1NMJ9FKD0-36">
          <mxGeometry width="50" height="50" relative="1" as="geometry">
            <mxPoint x="80" y="510" as="sourcePoint" />
            <mxPoint x="230" y="520" as="targetPoint" />
          </mxGeometry>
        </mxCell>
        <mxCell id="-2BwqX0TpwO1NMJ9FKD0-38" value="" style="endArrow=classic;html=1;rounded=0;exitX=0.528;exitY=-0.159;exitDx=0;exitDy=0;exitPerimeter=0;" edge="1" parent="1" source="-2BwqX0TpwO1NMJ9FKD0-3">
          <mxGeometry width="50" height="50" relative="1" as="geometry">
            <mxPoint x="80" y="510" as="sourcePoint" />
            <mxPoint x="247" y="520" as="targetPoint" />
          </mxGeometry>
        </mxCell>
        <mxCell id="-2BwqX0TpwO1NMJ9FKD0-39" value="" style="ellipse;whiteSpace=wrap;html=1;" vertex="1" parent="1">
          <mxGeometry x="180" y="520.42" width="120" height="80" as="geometry" />
        </mxCell>
        <mxCell id="-2BwqX0TpwO1NMJ9FKD0-40" value="处理顾客订单" style="text;html=1;align=center;verticalAlign=middle;resizable=0;points=[];autosize=1;strokeColor=none;fillColor=none;" vertex="1" parent="1">
          <mxGeometry x="185" y="600" width="90" height="20" as="geometry" />
        </mxCell>
        <mxCell id="-2BwqX0TpwO1NMJ9FKD0-41" value="" style="endArrow=block;dashed=1;endFill=0;endSize=12;html=1;rounded=0;exitX=1.012;exitY=0.698;exitDx=0;exitDy=0;exitPerimeter=0;" edge="1" parent="1" source="-2BwqX0TpwO1NMJ9FKD0-39">
          <mxGeometry width="160" relative="1" as="geometry">
            <mxPoint x="420.72683112586503" y="625.6440382282934" as="sourcePoint" />
            <mxPoint x="420" y="614" as="targetPoint" />
          </mxGeometry>
        </mxCell>
        <mxCell id="-2BwqX0TpwO1NMJ9FKD0-42" value="《include》" style="text;html=1;align=center;verticalAlign=middle;resizable=0;points=[];autosize=1;strokeColor=none;fillColor=none;" vertex="1" parent="1">
          <mxGeometry x="300.37" y="590" width="80" height="20" as="geometry" />
        </mxCell>
        <mxCell id="-2BwqX0TpwO1NMJ9FKD0-43" value="" style="ellipse;whiteSpace=wrap;html=1;" vertex="1" parent="1">
          <mxGeometry x="430" y="584" width="120" height="80" as="geometry" />
        </mxCell>
        <mxCell id="-2BwqX0TpwO1NMJ9FKD0-44" value="拒绝顾客订单" style="text;html=1;align=center;verticalAlign=middle;resizable=0;points=[];autosize=1;strokeColor=none;fillColor=none;" vertex="1" parent="1">
          <mxGeometry x="425" y="670" width="90" height="20" as="geometry" />
        </mxCell>
        <mxCell id="-2BwqX0TpwO1NMJ9FKD0-45" value="" style="endArrow=block;dashed=1;endFill=0;endSize=12;html=1;rounded=0;" edge="1" parent="1">
          <mxGeometry width="160" relative="1" as="geometry">
            <mxPoint x="278.4331401417064" y="600.0046228858786" as="sourcePoint" />
            <mxPoint x="425" y="746.37" as="targetPoint" />
          </mxGeometry>
        </mxCell>
        <mxCell id="-2BwqX0TpwO1NMJ9FKD0-46" value="《include》" style="text;html=1;align=center;verticalAlign=middle;resizable=0;points=[];autosize=1;strokeColor=none;fillColor=none;" vertex="1" parent="1">
          <mxGeometry x="300" y="650" width="80" height="20" as="geometry" />
        </mxCell>
        <mxCell id="-2BwqX0TpwO1NMJ9FKD0-47" value="" style="ellipse;whiteSpace=wrap;html=1;" vertex="1" parent="1">
          <mxGeometry x="425" y="720" width="120" height="80" as="geometry" />
        </mxCell>
        <mxCell id="-2BwqX0TpwO1NMJ9FKD0-48" value="接收订单更新库存" style="text;html=1;align=center;verticalAlign=middle;resizable=0;points=[];autosize=1;strokeColor=none;fillColor=none;" vertex="1" parent="1">
          <mxGeometry x="415" y="800" width="110" height="20" as="geometry" />
        </mxCell>
        <mxCell id="-2BwqX0TpwO1NMJ9FKD0-49" value="" style="endArrow=block;dashed=1;endFill=0;endSize=12;html=1;rounded=0;" edge="1" parent="1">
          <mxGeometry width="160" relative="1" as="geometry">
            <mxPoint x="179.99889031735762" y="585.0867229362239" as="sourcePoint" />
            <mxPoint x="-64.18" y="650" as="targetPoint" />
          </mxGeometry>
        </mxCell>
        <mxCell id="-2BwqX0TpwO1NMJ9FKD0-50" value="《include》" style="text;html=1;align=center;verticalAlign=middle;resizable=0;points=[];autosize=1;strokeColor=none;fillColor=none;" vertex="1" parent="1">
          <mxGeometry x="20" y="584" width="80" height="20" as="geometry" />
        </mxCell>
        <mxCell id="-2BwqX0TpwO1NMJ9FKD0-51" value="" style="ellipse;whiteSpace=wrap;html=1;" vertex="1" parent="1">
          <mxGeometry x="-180" y="604" width="120" height="80" as="geometry" />
        </mxCell>
        <mxCell id="-2BwqX0TpwO1NMJ9FKD0-52" value="查询顾客订单" style="text;html=1;align=center;verticalAlign=middle;resizable=0;points=[];autosize=1;strokeColor=none;fillColor=none;" vertex="1" parent="1">
          <mxGeometry x="-185" y="690" width="90" height="20" as="geometry" />
        </mxCell>
        <mxCell id="-2BwqX0TpwO1NMJ9FKD0-53" value="" style="endArrow=block;dashed=1;endFill=0;endSize=12;html=1;rounded=0;startArrow=none;" edge="1" parent="1" source="-2BwqX0TpwO1NMJ9FKD0-54">
          <mxGeometry width="160" relative="1" as="geometry">
            <mxPoint x="180" y="620" as="sourcePoint" />
            <mxPoint y="730" as="targetPoint" />
          </mxGeometry>
        </mxCell>
        <mxCell id="-2BwqX0TpwO1NMJ9FKD0-54" value="《include》" style="text;html=1;align=center;verticalAlign=middle;resizable=0;points=[];autosize=1;strokeColor=none;fillColor=none;" vertex="1" parent="1">
          <mxGeometry x="60" y="664" width="80" height="20" as="geometry" />
        </mxCell>
        <mxCell id="-2BwqX0TpwO1NMJ9FKD0-55" value="" style="endArrow=none;dashed=1;endFill=0;endSize=12;html=1;rounded=0;" edge="1" parent="1" target="-2BwqX0TpwO1NMJ9FKD0-54">
          <mxGeometry width="160" relative="1" as="geometry">
            <mxPoint x="180" y="620" as="sourcePoint" />
            <mxPoint y="730" as="targetPoint" />
          </mxGeometry>
        </mxCell>
        <mxCell id="-2BwqX0TpwO1NMJ9FKD0-56" value="" style="ellipse;whiteSpace=wrap;html=1;" vertex="1" parent="1">
          <mxGeometry x="-119" y="710" width="120" height="80" as="geometry" />
        </mxCell>
        <mxCell id="-2BwqX0TpwO1NMJ9FKD0-57" value="查询库存" style="text;html=1;align=center;verticalAlign=middle;resizable=0;points=[];autosize=1;strokeColor=none;fillColor=none;" vertex="1" parent="1">
          <mxGeometry x="-110" y="800" width="60" height="20" as="geometry" />
        </mxCell>
      </root>
    </mxGraphModel>
  </diagram>
</mxfile>
